<?xml version="1.0" standalone="no"?>
<!DOCTYPE svg PUBLIC "-//W3C//DTD SVG 20010904//EN"
 "http://www.w3.org/TR/2001/REC-SVG-20010904/DTD/svg10.dtd">
<svg version="1.0" xmlns="http://www.w3.org/2000/svg"
 width="512.000000pt" height="512.000000pt" viewBox="0 0 512.000000 512.000000"
 preserveAspectRatio="xMidYMid meet">

<g transform="translate(0.000000,512.000000) scale(0.100000,-0.100000)"
fill="red" stroke="none">
<path d="M1170 4606 c-292 -53 -526 -172 -725 -371 -374 -372 -487 -954 -284
-1464 40 -103 109 -219 185 -316 34 -44 536 -554 1116 -1132 l1053 -1053 45 0
c44 0 45 1 207 163 156 156 163 164 163 203 0 48 -22 82 -64 99 -56 23 -83 9
-199 -104 l-108 -105 -1005 1004 c-572 572 -1031 1038 -1064 1082 -111 147
-182 305 -216 484 -22 120 -15 346 14 456 108 402 414 719 806 832 248 72 526
51 764 -59 143 -67 236 -139 453 -352 202 -199 208 -203 248 -203 41 0 47 5
248 201 149 144 234 218 304 265 278 185 603 238 917 148 309 -88 581 -317
722 -608 157 -324 156 -657 -5 -981 -74 -150 -128 -217 -330 -412 -96 -92
-179 -181 -185 -197 -25 -66 27 -136 101 -136 36 0 49 9 147 99 158 145 301
297 353 376 94 141 167 313 204 480 26 114 31 369 10 500 -89 571 -523 1007
-1093 1101 -81 13 -140 15 -270 11 -231 -7 -374 -42 -567 -138 -134 -66 -242
-148 -413 -314 l-143 -138 -142 140 c-147 144 -218 203 -323 267 -93 56 -237
115 -364 148 -104 27 -133 31 -300 34 -126 2 -209 -1 -260 -10z"/>
<path d="M3874 1892 c-43 -34 -44 -46 -44 -436 l0 -376 -375 0 c-408 0 -419
-1 -443 -55 -22 -47 -15 -84 22 -121 l34 -34 381 0 381 0 0 -381 0 -381 34
-34 c26 -26 42 -34 71 -34 29 0 45 8 71 34 l34 34 0 381 0 381 381 0 381 0 34
34 c38 38 44 77 20 125 -26 50 -39 51 -441 51 l-375 0 0 376 c0 257 -4 382
-11 397 -19 37 -52 57 -94 57 -23 0 -49 -8 -61 -18z"/>
</g>
</svg>
